<?xml version="1.0" standalone="no"?>
<!DOCTYPE svg PUBLIC "-//W3C//DTD SVG 20010904//EN"
 "http://www.w3.org/TR/2001/REC-SVG-20010904/DTD/svg10.dtd">
<svg version="1.0" xmlns="http://www.w3.org/2000/svg"
 width="300.000000pt" height="300.000000pt" viewBox="0 0 300.000000 300.000000"
 preserveAspectRatio="xMidYMid meet">
<metadata>
Created by potrace 1.11, written by Peter Selinger 2001-2013
</metadata>
<g transform="translate(0.000000,300.000000) scale(0.100000,-0.100000)"
fill="#000000" stroke="none">
<path d="M1295 2408 c-4 -40 -9 -82 -11 -93 -2 -11 -5 -50 -6 -86 -1 -65 -2
-67 -35 -83 -30 -14 -32 -19 -27 -51 4 -28 2 -37 -13 -42 -43 -16 -136 -99
-190 -168 -34 -45 -78 -149 -88 -210 -9 -57 -15 -216 -9 -227 3 -5 7 -35 9
-66 5 -75 35 -216 85 -402 6 -19 19 -74 30 -122 17 -78 23 -92 56 -120 75 -66
133 -130 136 -151 3 -20 9 -22 75 -22 39 0 69 -3 67 -7 -3 -5 -11 -8 -17 -8
-26 0 -114 -49 -145 -81 -59 -58 -76 -111 -60 -182 8 -37 7 -39 -46 -88 -53
-48 -94 -117 -103 -171 l-4 -28 93 0 93 1 20 31 c11 17 29 37 41 44 18 13 22
10 49 -31 l28 -45 294 0 c242 0 297 3 309 14 8 8 14 17 14 20 0 5 46 75 55 84
4 4 53 -26 71 -43 6 -6 19 -25 28 -43 l17 -32 87 0 c85 0 126 10 103 24 -6 4
-11 15 -11 25 0 54 -121 221 -160 221 -26 0 -37 27 -35 85 2 65 -18 110 -65
152 -55 49 -158 82 -268 86 -58 2 -63 4 -69 27 -3 14 -11 32 -17 40 -5 8 -7
12 -3 9 5 -4 20 4 34 17 14 13 34 24 44 24 9 0 19 4 21 9 2 5 41 27 88 48 l85
40 -2 64 c-1 35 -5 84 -8 109 -14 114 -18 181 -20 409 -3 278 -8 344 -31 421
-50 170 -172 292 -318 319 -26 5 -52 16 -59 24 -7 9 -25 17 -42 19 -28 3 -32
8 -66 108 -44 130 -75 200 -87 200 -5 0 -13 -33 -17 -72z"/>
</g>
</svg>
